<svg width="26" height="26" viewBox="0 0 26 26" fill="none" xmlns="http://www.w3.org/2000/svg">
<path d="M2.19634 19.5542H5.05277V21.3417C5.05277 21.6707 5.30856 21.9375 5.62406 21.9375H20.5537C20.8692 21.9375 21.125 21.6707 21.125 21.3417V5.85C21.125 5.52094 20.8692 5.25417 20.5537 5.25417H17.6973V4.65833C17.6973 4.32927 17.4415 4.0625 17.126 4.0625C16.8105 4.0625 16.5547 4.32927 16.5547 4.65833V5.25417H13.6602V4.65833C13.6602 4.32927 13.4044 4.0625 13.0889 4.0625C12.7734 4.0625 12.5176 4.32927 12.5176 4.65833V5.25417H9.66116V4.65833C9.66116 4.32927 9.40538 4.0625 9.08987 4.0625C8.77437 4.0625 8.51859 4.32927 8.51859 4.65833V5.25417H5.62406C5.30856 5.25417 5.05277 5.52094 5.05277 5.85V9.425C5.05277 13.8163 3.30292 17.1945 1.8306 18.5006C1.6458 18.6612 1.57729 18.9253 1.65913 19.1612C1.74106 19.3971 1.95579 19.5542 2.19634 19.5542ZM19.9824 20.7458H6.19535V19.5542H17.126C17.2596 19.5542 17.389 19.5053 17.4917 19.4161C18.1785 18.8195 19.2423 17.3991 19.9824 15.5799V20.7458ZM6.19535 6.44583H8.51859V7.04167C8.51859 7.37073 8.77437 7.6375 9.08987 7.6375C9.40538 7.6375 9.66116 7.37073 9.66116 7.04167V6.44583H12.5176V7.04167C12.5176 7.37073 12.7734 7.6375 13.0889 7.6375C13.4044 7.6375 13.6602 7.37073 13.6602 7.04167V6.44583H16.5547V7.04167C16.5547 7.37073 16.8105 7.6375 17.126 7.6375C17.4415 7.6375 17.6973 7.37073 17.6973 7.04167V6.44583H19.9824V8.82917H6.19535V6.44583ZM6.18556 10.0204H19.9723C19.8436 13.8002 18.4526 16.7741 16.902 18.3625H3.49579C5.2528 16.0276 6.0913 12.9874 6.18556 10.0204Z" fill="white"/>
</svg>
