<svg width="48" height="48" viewBox="0 0 48 48" fill="none" xmlns="http://www.w3.org/2000/svg">
<mask id="mask0_538_541" style="mask-type:alpha" maskUnits="userSpaceOnUse" x="6" y="6" width="36" height="36">
<rect x="6" y="6" width="36" height="36" fill="#D9D9D9"/>
</mask>
<g mask="url(#mask0_538_541)">
<path d="M20.325 28.725L33.0375 16.0125C33.3375 15.7125 33.6875 15.5625 34.0875 15.5625C34.4875 15.5625 34.8375 15.7125 35.1375 16.0125C35.4375 16.3125 35.5875 16.6688 35.5875 17.0813C35.5875 17.4938 35.4375 17.85 35.1375 18.15L21.375 31.95C21.075 32.25 20.725 32.4 20.325 32.4C19.925 32.4 19.575 32.25 19.275 31.95L12.825 25.5C12.525 25.2 12.3813 24.8438 12.3938 24.4313C12.4063 24.0188 12.5625 23.6625 12.8625 23.3625C13.1625 23.0625 13.5188 22.9125 13.9313 22.9125C14.3438 22.9125 14.7 23.0625 15 23.3625L20.325 28.725Z" fill="white"/>
</g>
</svg>
