<svg width="24" height="24" viewBox="0 0 24 24" fill="none" xmlns="http://www.w3.org/2000/svg">
<mask id="mask0_519_684" style="mask-type:alpha" maskUnits="userSpaceOnUse" x="0" y="0" width="24" height="24">
<rect width="24" height="24" fill="#D9D9D9"/>
</mask>
<g mask="url(#mask0_519_684)">
<path d="M12 21.675C11.7667 21.675 11.5292 21.6333 11.2875 21.55C11.0458 21.4667 10.8333 21.3333 10.65 21.15L8.925 19.575C7.15833 17.9583 5.5625 16.3542 4.1375 14.7625C2.7125 13.1708 2 11.4167 2 9.5C2 7.93333 2.525 6.625 3.575 5.575C4.625 4.525 5.93333 4 7.5 4C8.38333 4 9.21667 4.1875 10 4.5625C10.7833 4.9375 11.45 5.45 12 6.1C12.55 5.45 13.2167 4.9375 14 4.5625C14.7833 4.1875 15.6167 4 16.5 4C18.0667 4 19.375 4.525 20.425 5.575C21.475 6.625 22 7.93333 22 9.5C22 11.4167 21.2917 13.175 19.875 14.775C18.4583 16.375 16.85 17.9833 15.05 19.6L13.35 21.15C13.1667 21.3333 12.9542 21.4667 12.7125 21.55C12.4708 21.6333 12.2333 21.675 12 21.675ZM11.05 8.1C10.5667 7.41667 10.05 6.89583 9.5 6.5375C8.95 6.17917 8.28333 6 7.5 6C6.5 6 5.66667 6.33333 5 7C4.33333 7.66667 4 8.5 4 9.5C4 10.3667 4.30833 11.2875 4.925 12.2625C5.54167 13.2375 6.27917 14.1833 7.1375 15.1C7.99583 16.0167 8.87917 16.875 9.7875 17.675C10.6958 18.475 11.4333 19.1333 12 19.65C12.5667 19.1333 13.3042 18.475 14.2125 17.675C15.1208 16.875 16.0042 16.0167 16.8625 15.1C17.7208 14.1833 18.4583 13.2375 19.075 12.2625C19.6917 11.2875 20 10.3667 20 9.5C20 8.5 19.6667 7.66667 19 7C18.3333 6.33333 17.5 6 16.5 6C15.7167 6 15.05 6.17917 14.5 6.5375C13.95 6.89583 13.4333 7.41667 12.95 8.1C12.8333 8.26667 12.6917 8.39167 12.525 8.475C12.3583 8.55833 12.1833 8.6 12 8.6C11.8167 8.6 11.6417 8.55833 11.475 8.475C11.3083 8.39167 11.1667 8.26667 11.05 8.1Z" fill="white"/>
</g>
</svg>
