<svg width="37" height="36" viewBox="0 0 37 36" fill="none" xmlns="http://www.w3.org/2000/svg">
<mask id="mask0_538_53" style="mask-type:alpha" maskUnits="userSpaceOnUse" x="0" y="0" width="37" height="36">
<rect x="0.799988" width="36" height="36" fill="#D9D9D9"/>
</mask>
<g mask="url(#mask0_538_53)">
<path d="M9.79999 33C8.97499 33 8.26874 32.7063 7.68124 32.1188C7.09374 31.5313 6.79999 30.825 6.79999 30V15C6.79999 14.175 7.09374 13.4688 7.68124 12.8813C8.26874 12.2938 8.97499 12 9.79999 12H11.3V9.00002C11.3 6.92502 12.0312 5.15627 13.4937 3.69377C14.9562 2.23127 16.725 1.50002 18.8 1.50002C20.875 1.50002 22.6437 2.23127 24.1062 3.69377C25.5687 5.15627 26.3 6.92502 26.3 9.00002V12H27.8C28.625 12 29.3312 12.2938 29.9187 12.8813C30.5062 13.4688 30.8 14.175 30.8 15V30C30.8 30.825 30.5062 31.5313 29.9187 32.1188C29.3312 32.7063 28.625 33 27.8 33H9.79999ZM9.79999 30H27.8V15H9.79999V30ZM14.3 12H23.3V9.00002C23.3 7.75002 22.8625 6.68752 21.9875 5.81252C21.1125 4.93752 20.05 4.50002 18.8 4.50002C17.55 4.50002 16.4875 4.93752 15.6125 5.81252C14.7375 6.68752 14.3 7.75002 14.3 9.00002V12Z" fill="white"/>
</g>
</svg>
