<svg width="36" height="36" viewBox="0 0 36 36" fill="none" xmlns="http://www.w3.org/2000/svg">
<mask id="mask0_538_524" style="mask-type:alpha" maskUnits="userSpaceOnUse" x="0" y="0" width="36" height="36">
<rect width="36" height="36" fill="#D9D9D9"/>
</mask>
<g mask="url(#mask0_538_524)">
<path d="M22.95 13.2375L21.3375 11.625C21.1875 11.475 21.0125 11.4063 20.8125 11.4188C20.6125 11.4313 20.4375 11.5125 20.2875 11.6625C20.1375 11.8125 20.0625 11.9875 20.0625 12.1875C20.0625 12.3875 20.1375 12.5625 20.2875 12.7125L21.9 14.325C22.2 14.625 22.55 14.775 22.95 14.775C23.35 14.775 23.7 14.625 24 14.325L27.7125 10.575C27.8625 10.425 27.9375 10.25 27.9375 10.05C27.9375 9.85 27.8625 9.675 27.7125 9.525C27.5625 9.375 27.3875 9.3 27.1875 9.3C26.9875 9.3 26.8125 9.375 26.6625 9.525L22.95 13.2375ZM6 30C5.575 30 5.21875 29.8562 4.93125 29.5687C4.64375 29.2812 4.5 28.925 4.5 28.5C4.5 28.075 4.64375 27.7188 4.93125 27.4313C5.21875 27.1438 5.575 27 6 27H21C21.425 27 21.7812 27.1438 22.0688 27.4313C22.3563 27.7188 22.5 28.075 22.5 28.5C22.5 28.925 22.3563 29.2812 22.0688 29.5687C21.7812 29.8562 21.425 30 21 30H6ZM24 19.5C21.925 19.5 20.1563 18.7688 18.6938 17.3063C17.2313 15.8438 16.5 14.075 16.5 12C16.5 9.925 17.2313 8.15625 18.6938 6.69375C20.1563 5.23125 21.925 4.5 24 4.5C26.075 4.5 27.8438 5.23125 29.3063 6.69375C30.7688 8.15625 31.5 9.925 31.5 12C31.5 14.075 30.7688 15.8438 29.3063 17.3063C27.8438 18.7688 26.075 19.5 24 19.5ZM6 18C5.575 18 5.21875 17.8563 4.93125 17.5688C4.64375 17.2813 4.5 16.925 4.5 16.5C4.5 16.075 4.64375 15.7188 4.93125 15.4312C5.21875 15.1438 5.575 15 6 15H13.0125C13.4375 15 13.7938 15.1438 14.0813 15.4312C14.3688 15.7188 14.5125 16.075 14.5125 16.5C14.5125 16.9 14.3688 17.25 14.0813 17.55C13.7938 17.85 13.4375 18 13.0125 18H6ZM6 24C5.575 24 5.21875 23.8563 4.93125 23.5688C4.64375 23.2812 4.5 22.925 4.5 22.5C4.5 22.075 4.64375 21.7188 4.93125 21.4313C5.21875 21.1438 5.575 21 6 21H17.8875C18.3125 21 18.6687 21.1438 18.9562 21.4313C19.2437 21.7188 19.3875 22.075 19.3875 22.5C19.3875 22.9 19.25 23.25 18.975 23.55C18.7 23.85 18.3375 24 17.8875 24H6Z" fill="white"/>
</g>
</svg>
